<svg width="76" height="17" viewBox="0 0 76 17" fill="none" xmlns="http://www.w3.org/2000/svg">
<path d="M10.542 4.219C10.374 4.023 10.15 3.834 9.87 3.652C9.59 3.47 9.275 3.309 8.925 3.169C8.575 3.015 8.19 2.896 7.77 2.812C7.364 2.714 6.937 2.665 6.489 2.665C5.327 2.665 4.473 2.882 3.927 3.316C3.395 3.75 3.129 4.345 3.129 5.101C3.129 5.507 3.206 5.843 3.36 6.109C3.514 6.375 3.752 6.606 4.074 6.802C4.41 6.984 4.823 7.145 5.313 7.285C5.803 7.425 6.384 7.572 7.056 7.726C7.826 7.894 8.519 8.09 9.135 8.314C9.765 8.524 10.297 8.79 10.731 9.112C11.179 9.434 11.515 9.826 11.739 10.288C11.977 10.75 12.096 11.317 12.096 11.989C12.096 12.703 11.956 13.326 11.676 13.858C11.396 14.376 11.011 14.81 10.521 15.16C10.045 15.496 9.478 15.748 8.82 15.916C8.162 16.07 7.448 16.147 6.678 16.147C5.53 16.147 4.438 15.972 3.402 15.622C2.38 15.258 1.449 14.733 0.609 14.047L1.512 12.451C1.736 12.689 2.023 12.927 2.373 13.165C2.737 13.403 3.143 13.62 3.591 13.816C4.053 13.998 4.543 14.152 5.061 14.278C5.593 14.39 6.146 14.446 6.72 14.446C7.784 14.446 8.61 14.257 9.198 13.879C9.786 13.501 10.08 12.934 10.08 12.178C10.08 11.758 9.982 11.408 9.786 11.128C9.604 10.834 9.331 10.582 8.967 10.372C8.603 10.162 8.148 9.98 7.602 9.826C7.07 9.658 6.461 9.49 5.775 9.322C5.019 9.14 4.354 8.944 3.78 8.734C3.206 8.524 2.723 8.272 2.331 7.978C1.953 7.684 1.666 7.327 1.47 6.907C1.274 6.487 1.176 5.983 1.176 5.395C1.176 4.681 1.309 4.051 1.575 3.505C1.841 2.959 2.212 2.497 2.688 2.119C3.164 1.741 3.731 1.461 4.389 1.279C5.047 1.083 5.761 0.984999 6.531 0.984999C7.539 0.984999 8.449 1.139 9.261 1.447C10.073 1.755 10.794 2.168 11.424 2.686L10.542 4.219ZM19.7528 15.454C19.6408 15.51 19.4938 15.58 19.3118 15.664C19.1298 15.734 18.9198 15.811 18.6818 15.895C18.4578 15.965 18.2058 16.021 17.9258 16.063C17.6598 16.119 17.3798 16.147 17.0858 16.147C16.4138 16.147 15.8328 15.965 15.3428 15.601C14.8528 15.223 14.6078 14.642 14.6078 13.858V6.487H13.1168V5.038H14.6078V1.384H16.4558V5.038H18.9128V6.487H16.4558V13.291C16.4838 13.697 16.6168 13.991 16.8548 14.173C17.0928 14.355 17.3728 14.446 17.6948 14.446C18.0588 14.446 18.3878 14.39 18.6818 14.278C18.9898 14.152 19.1998 14.054 19.3118 13.984L19.7528 15.454ZM24.2796 16.21C23.7616 16.21 23.2786 16.126 22.8306 15.958C22.3826 15.776 21.9906 15.531 21.6546 15.223C21.3326 14.915 21.0736 14.558 20.8776 14.152C20.6956 13.732 20.6046 13.277 20.6046 12.787C20.6046 12.283 20.7166 11.828 20.9406 11.422C21.1646 11.002 21.4796 10.645 21.8856 10.351C22.3056 10.057 22.7956 9.826 23.3556 9.658C23.9296 9.49 24.5526 9.406 25.2246 9.406C25.7566 9.406 26.2956 9.455 26.8416 9.553C27.3876 9.651 27.8706 9.784 28.2906 9.952V9.07C28.2906 8.174 28.0386 7.474 27.5346 6.97C27.0306 6.452 26.3166 6.193 25.3926 6.193C24.2866 6.193 23.1246 6.62 21.9066 7.474L21.2976 6.277C22.7116 5.325 24.1326 4.849 25.5606 4.849C27.0026 4.849 28.1226 5.234 28.9206 6.004C29.7326 6.774 30.1386 7.859 30.1386 9.259V13.732C30.1386 14.166 30.3346 14.39 30.7266 14.404V16C30.5306 16.028 30.3696 16.049 30.2436 16.063C30.1176 16.077 29.9846 16.084 29.8446 16.084C29.4806 16.084 29.1866 15.979 28.9626 15.769C28.7526 15.545 28.6266 15.279 28.5846 14.971L28.5426 14.194C28.0526 14.852 27.4296 15.356 26.6736 15.706C25.9316 16.042 25.1336 16.21 24.2796 16.21ZM24.7626 14.824C25.4206 14.824 26.0296 14.705 26.5896 14.467C27.1636 14.215 27.5976 13.886 27.8916 13.48C28.1576 13.214 28.2906 12.941 28.2906 12.661V11.044C27.3946 10.694 26.4636 10.519 25.4976 10.519C24.5736 10.519 23.8176 10.715 23.2296 11.107C22.6556 11.499 22.3686 12.01 22.3686 12.64C22.3686 12.948 22.4246 13.235 22.5366 13.501C22.6626 13.767 22.8306 13.998 23.0406 14.194C23.2646 14.39 23.5236 14.544 23.8176 14.656C24.1116 14.768 24.4266 14.824 24.7626 14.824ZM42.6065 16H40.7585V9.868C40.7585 8.692 40.5765 7.838 40.2125 7.306C39.8625 6.774 39.3235 6.508 38.5955 6.508C38.2175 6.508 37.8395 6.585 37.4615 6.739C37.0835 6.879 36.7265 7.075 36.3905 7.327C36.0545 7.579 35.7605 7.88 35.5085 8.23C35.2565 8.58 35.0675 8.965 34.9415 9.385V16H33.0935V5.038H34.7735V7.39C35.2075 6.62 35.8305 6.004 36.6425 5.542C37.4685 5.08 38.3645 4.849 39.3305 4.849C39.9605 4.849 40.4855 4.968 40.9055 5.206C41.3255 5.43 41.6615 5.752 41.9135 6.172C42.1655 6.578 42.3405 7.061 42.4385 7.621C42.5505 8.181 42.6065 8.79 42.6065 9.448V16ZM49.9953 16.21C49.2393 16.21 48.5393 16.056 47.8953 15.748C47.2513 15.44 46.6983 15.027 46.2363 14.509C45.7743 13.991 45.4103 13.389 45.1443 12.703C44.8923 12.017 44.7663 11.296 44.7663 10.54C44.7663 9.77 44.8853 9.042 45.1233 8.356C45.3753 7.656 45.7183 7.047 46.1523 6.529C46.6003 6.011 47.1253 5.605 47.7273 5.311C48.3433 5.003 49.0153 4.849 49.7433 4.849C50.6253 4.849 51.4093 5.08 52.0953 5.542C52.7953 6.004 53.3483 6.564 53.7543 7.222V0.67H55.6023V13.732C55.6023 14.166 55.7983 14.39 56.1903 14.404V16C55.9943 16.028 55.8333 16.049 55.7073 16.063C55.5953 16.077 55.4833 16.084 55.3713 16.084C55.0073 16.084 54.6853 15.965 54.4053 15.727C54.1393 15.475 54.0063 15.188 54.0063 14.866V13.942C53.5723 14.656 52.9913 15.216 52.2633 15.622C51.5493 16.014 50.7933 16.21 49.9953 16.21ZM50.4363 14.614C50.7723 14.614 51.1153 14.551 51.4653 14.425C51.8293 14.299 52.1653 14.124 52.4733 13.9C52.7953 13.676 53.0683 13.417 53.2923 13.123C53.5303 12.815 53.6843 12.493 53.7543 12.157V9.007C53.6283 8.657 53.4393 8.328 53.1873 8.02C52.9353 7.698 52.6483 7.425 52.3263 7.201C52.0183 6.963 51.6823 6.781 51.3183 6.655C50.9683 6.515 50.6183 6.445 50.2683 6.445C49.7223 6.445 49.2253 6.564 48.7773 6.802C48.3433 7.026 47.9653 7.334 47.6433 7.726C47.3353 8.104 47.0973 8.545 46.9293 9.049C46.7613 9.539 46.6773 10.043 46.6773 10.561C46.6773 11.107 46.7753 11.632 46.9713 12.136C47.1673 12.626 47.4333 13.053 47.7693 13.417C48.1053 13.781 48.4973 14.075 48.9453 14.299C49.4073 14.509 49.9043 14.614 50.4363 14.614Z" fill="white"/>
<path d="M58.6243 16V1.09H62.0683V16H58.6243ZM75.2732 16H71.9132V9.805C71.9132 9.077 71.7732 8.552 71.4932 8.23C71.2272 7.894 70.8702 7.726 70.4222 7.726C70.1842 7.726 69.9462 7.775 69.7082 7.873C69.4702 7.971 69.2392 8.111 69.0152 8.293C68.7912 8.461 68.5882 8.664 68.4062 8.902C68.2382 9.14 68.1052 9.399 68.0072 9.679V16H64.6472V4.975H67.6712V6.823C68.0772 6.165 68.6512 5.661 69.3932 5.311C70.1352 4.947 70.9892 4.765 71.9552 4.765C72.6692 4.765 73.2432 4.898 73.6772 5.164C74.1112 5.416 74.4472 5.752 74.6852 6.172C74.9232 6.578 75.0772 7.026 75.1472 7.516C75.2312 8.006 75.2732 8.482 75.2732 8.944V16Z" fill="#FF9921"/>
</svg>
