<svg width="88" height="68" viewBox="0 0 88 68" fill="none" xmlns="http://www.w3.org/2000/svg">
<g filter="url(#filter0_dd)">
<rect x="8" y="4" width="72" height="52" rx="5" fill="#FF9921"/>
<path d="M44 40C49.5228 40 54 35.5228 54 30C54 24.4772 49.5228 20 44 20C38.4772 20 34 24.4772 34 30C34 35.5228 38.4772 40 44 40Z" stroke="white" stroke-linecap="round" stroke-linejoin="round"/>
<path d="M44 36C47.3137 36 50 33.3137 50 30C50 26.6863 47.3137 24 44 24C40.6863 24 38 26.6863 38 30C38 33.3137 40.6863 36 44 36Z" stroke="white" stroke-linecap="round" stroke-linejoin="round"/>
<path d="M44 32C45.1046 32 46 31.1046 46 30C46 28.8954 45.1046 28 44 28C42.8954 28 42 28.8954 42 30C42 31.1046 42.8954 32 44 32Z" stroke="white" stroke-linecap="round" stroke-linejoin="round"/>
</g>
<defs>
<filter id="filter0_dd" x="0" y="0" width="88" height="68" filterUnits="userSpaceOnUse" color-interpolation-filters="sRGB">
<feFlood flood-opacity="0" result="BackgroundImageFix"/>
<feColorMatrix in="SourceAlpha" type="matrix" values="0 0 0 0 0 0 0 0 0 0 0 0 0 0 0 0 0 0 127 0"/>
<feOffset dy="4"/>
<feGaussianBlur stdDeviation="4"/>
<feColorMatrix type="matrix" values="0 0 0 0 0.196487 0 0 0 0 0.196487 0 0 0 0 0.279476 0 0 0 0.06 0"/>
<feBlend mode="multiply" in2="BackgroundImageFix" result="effect1_dropShadow"/>
<feColorMatrix in="SourceAlpha" type="matrix" values="0 0 0 0 0 0 0 0 0 0 0 0 0 0 0 0 0 0 127 0"/>
<feOffset dy="4"/>
<feGaussianBlur stdDeviation="2"/>
<feColorMatrix type="matrix" values="0 0 0 0 0.196487 0 0 0 0 0.196487 0 0 0 0 0.279476 0 0 0 0.08 0"/>
<feBlend mode="multiply" in2="effect1_dropShadow" result="effect2_dropShadow"/>
<feBlend mode="normal" in="SourceGraphic" in2="effect2_dropShadow" result="shape"/>
</filter>
</defs>
</svg>
